<svg xmlns="http://www.w3.org/2000/svg" viewBox="0 0 1440 320"><path fill="#8c4ce7" fill-opacity="1" d="M0,32L34.3,69.3C68.6,107,137,181,206,208C274.3,235,343,213,411,186.7C480,160,549,128,617,96C685.7,64,754,32,823,32C891.4,32,960,64,1029,90.7C1097.1,117,1166,139,1234,128C1302.9,117,1371,75,1406,53.3L1440,32L1440,320L1405.7,320C1371.4,320,1303,320,1234,320C1165.7,320,1097,320,1029,320C960,320,891,320,823,320C754.3,320,686,320,617,320C548.6,320,480,320,411,320C342.9,320,274,320,206,320C137.1,320,69,320,34,320L0,320Z"></path></svg>